<svg xmlns="http://www.w3.org/2000/svg" viewBox="0 0 400 300" role="img" aria-label="Tostado de palta y huevo poché">
  <rect width="400" height="300" fill="#F9F7F5"/>
  <circle cx="64" cy="248" r="86" fill="#E9E3DD"/>
  <ellipse cx="300" cy="242" rx="120" ry="20" fill="#3E2B1E" opacity="0.08"/>
  <ellipse cx="200" cy="238" rx="128" ry="22" fill="#fffdf9" stroke="#E3D9CC" stroke-width="2.5"/>
  <path d="M128 168 q-12 0 -12 -14 l8 -92 h168 l8 92 q0 14 -12 14 Z" fill="#C9A585"/>
  <path d="M124 162 l10 -104 h168 l10 104 l-8 10 h-172 Z" fill="#fffdf9"/>
  <path d="M142 118 q14 -6 30 -2" stroke="#E3D9CC" stroke-width="4" fill="none" stroke-linecap="round"/>
  <path d="M150 104 q20 8 46 4" stroke="#E3D9CC" stroke-width="4" fill="none" stroke-linecap="round"/>
  <ellipse cx="176" cy="160" rx="30" ry="10" fill="#8A6D55"/>
  <ellipse cx="240" cy="158" rx="26" ry="9" fill="#A8967F"/>
  <ellipse cx="208" cy="152" rx="38" ry="13" fill="#fffdf9" stroke="#E3D9CC" stroke-width="2.5"/>
  <circle cx="208" cy="150" r="11" fill="#6F543E"/>
  <g transform="translate(120 104) rotate(-12)">
    <path d="M0 0 q8 -14 26 -16 q-2 14 -14 18 Z" fill="#8A6D55"/>
  </g>
  <g transform="translate(268 96) rotate(10)">
    <path d="M0 0 q8 -14 26 -16 q-2 14 -14 18 Z" fill="#A8967F"/>
  </g>
</svg>